<svg width="134" height="174" viewBox="0 0 134 174" fill="none" xmlns="http://www.w3.org/2000/svg">
<path d="M78.9988 164.039C62.6865 142.399 23.8806 95.3523 3.40778 70.8149C2.3241 69.5161 2.15018 67.654 3.22024 66.344C8.08779 60.3846 15.7411 58.8063 22.1497 58.93C27.3865 59.031 31.627 62.6502 34.6498 66.9277C50.0521 88.7235 92.8404 135.502 116.5 160.586C117.918 162.089 117.981 164.464 116.338 165.716C109.284 171.093 98.4941 171.715 90.355 170.951C85.7374 170.517 81.7906 167.742 78.9988 164.039Z" fill="white" stroke="black" stroke-linecap="round"/>
<path d="M78.9988 161.972C62.6865 140.332 23.8806 93.2857 3.40778 68.7483C2.3241 67.4495 2.15018 65.5874 3.22024 64.2773C8.08779 58.318 15.7411 56.7396 22.1497 56.8633C27.3865 56.9644 31.627 60.5835 34.6498 64.8611C50.0521 86.6568 92.8404 133.435 116.5 158.519C117.918 160.023 117.981 162.397 116.338 163.65C109.284 169.026 98.4941 169.649 90.355 168.884C85.7374 168.45 81.7906 165.676 78.9988 161.972Z" fill="white" stroke="black" stroke-linecap="round"/>
<path d="M120.426 73.3345C120.692 72.8697 121.201 70.0978 121.422 68.77V67.4426H127.849L127.63 69.1985L128.059 70.2851C128.269 70.8163 128.402 71.3749 128.454 71.9437L128.639 73.9613L129.912 75.9586C131.334 77.574 131.002 78.051 130.658 78.0876C130.009 78.228 129.232 77.5462 128.924 77.1877L126.686 74.4441L128.924 77.6486L129.912 78.8118C131.159 80.1111 130.929 80.8311 130.658 81.0286C130.29 81.3271 129.846 81.153 129.671 81.0286C130.268 81.7836 130.08 82.2504 129.912 82.3894C129.385 82.5123 128.844 82.1919 128.639 82.0163C128.85 83.1049 128.39 83.1576 128.134 83.0479C126.835 82.6265 123.701 79.4483 122.296 77.912C122.226 79.7907 121.447 80.5238 121.067 80.6555C120.681 80.4975 120.479 79.3605 120.426 78.8118C120.426 78.5462 120.26 77.0137 120.177 76.2806C120.177 75.5171 120.343 73.9984 120.426 73.3345Z" fill="white"/>
<path d="M128.639 82.0163C128.85 83.1049 128.39 83.1576 128.134 83.0479C126.835 82.6265 123.701 79.4483 122.296 77.912C122.226 79.7907 121.447 80.5238 121.067 80.6555C120.681 80.4975 120.479 79.3605 120.426 78.8118C120.426 78.5462 120.26 77.0137 120.177 76.2806C120.177 75.5171 120.343 73.9984 120.426 73.3345C120.692 72.8697 121.201 70.0978 121.422 68.77V67.4426H127.849L127.63 69.1985L128.059 70.2851C128.269 70.8163 128.402 71.3749 128.454 71.9437L128.639 73.9613L129.912 75.9586C131.334 77.574 131.002 78.051 130.658 78.0876C130.009 78.228 129.232 77.5462 128.924 77.1877L126.686 74.4441L128.924 77.6486L129.912 78.8118C131.159 80.1111 130.929 80.8311 130.658 81.0286C130.29 81.3271 129.846 81.153 129.671 81.0286M128.639 82.0163L125.391 79.185L123.547 76.617M128.639 82.0163C128.844 82.1919 129.385 82.5123 129.912 82.3894C130.08 82.2504 130.268 81.7836 129.671 81.0286M129.671 81.0286L126.817 78.5924L124.754 75.5416" stroke="black" stroke-linecap="round" stroke-linejoin="round"/>
<path d="M36.4981 35.6405L39.4447 37.2005L41.965 31.8895L39.2531 30.5187C38.223 29.2597 36.6326 27.8058 35.3611 26.7275C34.419 25.9285 33.2544 25.4392 32.0246 25.3227C29.0024 25.0364 27.3071 25.1835 26.789 25.3169C26.3492 25.6834 26.9722 26.2027 27.3387 26.4165C26.3125 26.094 25.7995 26.2821 25.6712 26.4165C25.2754 26.8856 25.9827 27.4305 26.3858 27.6443C25.3597 27.2631 25.0176 27.4243 24.9749 27.5526C24.5351 28.1829 26.001 28.8414 26.789 29.0918L30.5089 30.2463L27.5037 29.6966C26.1403 29.5353 25.6162 29.7638 25.5246 29.8983C25.2608 30.7485 26.4775 31.1444 27.1189 31.236L29.5194 31.6208L32.9827 33.2884L31.1686 33.0136C29.2629 32.6031 28.7742 33.0257 28.7681 33.2884C28.7094 33.9627 29.9042 34.3634 30.5089 34.4795C31.1833 34.7141 31.9708 35.0431 32.2803 35.1783C33.7132 35.964 35.6892 35.8138 36.4981 35.6405Z" fill="white"/>
<path d="M26.3858 27.6443C25.3597 27.2631 25.0176 27.4243 24.9749 27.5526C24.5351 28.1829 26.001 28.8414 26.789 29.0918L30.5089 30.2463L27.5037 29.6966C26.1403 29.5353 25.6162 29.7638 25.5246 29.8983C25.2608 30.7485 26.4775 31.1444 27.1189 31.236L29.5194 31.6208L32.9827 33.2884L31.1686 33.0136C29.2629 32.6031 28.7742 33.0257 28.7681 33.2884C28.7094 33.9627 29.9042 34.3634 30.5089 34.4795C31.1833 34.7141 31.9708 35.0431 32.2803 35.1783C33.7132 35.964 35.6892 35.8138 36.4981 35.6405L39.4447 37.2005L41.965 31.8895L39.2531 30.5187C38.223 29.2597 36.6326 27.8058 35.3611 26.7275C34.419 25.9285 33.2544 25.4392 32.0246 25.3227C29.0024 25.0364 27.3071 25.1835 26.789 25.3169C26.3492 25.6834 26.9722 26.2027 27.3387 26.4165M26.3858 27.6443C25.9827 27.4305 25.2754 26.8856 25.6712 26.4165C25.7995 26.2821 26.3125 26.094 27.3387 26.4165M26.3858 27.6443L30.9087 28.8796M27.3387 26.4165L31.1686 27.1809" stroke="black" stroke-linecap="round" stroke-linejoin="round"/>
<path d="M43.5916 89.0979L42.7625 85.2288C45.4156 82.1334 49.3953 82.7415 51.0535 83.4324L53.8082 95.002C54.1864 96.5905 53.1374 98.1663 51.526 98.4304L41.304 100.106C34.7027 102.372 31.374 100.002 30.3369 97.9603C30.3336 97.954 30.3305 97.9478 30.3275 97.9416C30.2058 97.699 30.1164 97.4611 30.0578 97.2365C29.5051 94.6939 33.7511 93.3054 35.8699 93.2133L43.5916 89.0979Z" fill="white"/>
<path d="M35.8699 93.2133L43.5916 89.0979L42.7625 85.2288C45.4156 82.1334 49.3953 82.7415 51.0535 83.4324L53.8082 95.002M35.8699 93.2133C33.7511 93.3054 29.5051 94.6939 30.0578 97.2365C30.1164 97.4611 30.2058 97.699 30.3275 97.9416M35.8699 93.2133C36.4471 93.3974 37.8792 94.145 38.9899 95.663C39.4362 96.3984 40.3569 98.1532 40.4692 99.2884M30.3275 97.9416C31.3538 99.988 34.6826 102.379 41.304 100.106L51.526 98.4304C53.1374 98.1663 54.1864 96.5905 53.8082 95.002M30.3275 97.9416C30.6836 98.6703 32.7389 100.068 38.1106 99.8282C38.7311 99.6812 39.5553 99.4914 40.4692 99.2884M53.8082 95.002C52.7783 96.433 49.2698 97.558 47.6443 97.9416C46.1269 98.0835 42.9637 98.7346 40.4692 99.2884" stroke="black" stroke-linecap="round"/>
<path d="M72.1734 119.123V118.145C73.5147 116.971 77.1102 115.606 78.7403 115.071L82.7745 121.273L83.4209 122.266C84.2048 124.623 83.9861 125.225 80.9866 127.432C80.1397 128.055 74.4765 132.108 72.1734 133.618C67.8805 136.433 63.9141 134.846 62.9104 132.404C62.8493 132.255 62.7992 132.103 62.7606 131.949C62.5099 130.946 63.3708 129.556 64.9285 127.959C65.7709 127.096 66.8171 126.172 68.0014 125.216L72.1734 119.123Z" fill="white"/>
<path d="M64.9285 127.959C65.7709 127.096 66.8171 126.172 68.0014 125.216L72.1734 119.123V118.145C73.5147 116.971 77.1102 115.606 78.7403 115.071L82.7745 121.273M64.9285 127.959C63.3708 129.556 62.5099 130.946 62.7606 131.949C62.7992 132.103 62.8493 132.255 62.9104 132.404M64.9285 127.959C65.9162 127.59 68.4437 127.482 70.6519 130.005L71.6289 132.404M62.9104 132.404C63.9141 134.846 67.8805 136.433 72.1734 133.618C74.4765 132.108 80.1397 128.055 80.9866 127.432C83.9861 125.225 84.2048 124.623 83.4209 122.266L82.7745 121.273M62.9104 132.404C63.8228 133.6 66.6484 135.43 70.6519 133.183L79.7758 125.906L82.7745 121.273" stroke="black" stroke-linecap="round"/>
<path d="M84.3563 81.6225C90.9866 79.4125 92.8283 72.8742 92.9204 69.8813C91.4191 62.5428 79.4609 57.8938 73.6695 56.4866C66.2924 56.8345 50.8842 58.6835 41.3709 63.328C38.7954 64.5855 37.402 67.2305 37.9964 70.0343C39.1954 75.6903 42.2322 84.4933 44.019 89.2582C48.2445 90.9868 51.0615 89.4982 51.9418 88.5379C52.7101 81.3354 51.6217 74.4129 50.9814 71.852C55.0149 73.4285 63.6259 74.5096 67.4273 74.8531C63.0695 79.7823 58.9974 86.6517 56.3993 91.5916C55.035 94.1855 55.3831 97.3093 57.1417 99.6539L70.7004 117.731C75.5648 118.807 78.1799 116.027 78.8794 114.502C76.1244 107.356 70.7007 99.0898 68.3332 95.8498C68.7752 95.5183 79.1995 86.2268 84.3563 81.6225Z" fill="white"/>
<path d="M67.4273 74.8531C63.6259 74.5096 55.0149 73.4285 50.9814 71.852C51.6217 74.4129 52.7101 81.3354 51.9418 88.5379C51.0615 89.4982 48.2445 90.9868 44.019 89.2582C42.2322 84.4933 39.1954 75.6903 37.9964 70.0343C37.402 67.2305 38.7954 64.5855 41.3709 63.328C50.8842 58.6835 66.2924 56.8345 73.6695 56.4866C79.4609 57.8938 91.4191 62.5428 92.9204 69.8813C92.8283 72.8742 90.9866 79.4125 84.3563 81.6225C79.1995 86.2268 68.7752 95.5183 68.3332 95.8498C70.7007 99.0898 76.1244 107.356 78.8794 114.502C78.1799 116.027 75.5648 118.807 70.7004 117.731L57.1417 99.6539C55.3831 97.3093 55.035 94.1855 56.3993 91.5916C58.9974 86.6517 63.0695 79.7823 67.4273 74.8531ZM67.4273 74.8531L72.6697 67.9668" stroke="black" stroke-linecap="round"/>
<path d="M83.0583 66.8796C83.5369 68.9878 84.9642 73.5891 86.844 75.1289" stroke="black" stroke-linecap="round" stroke-linejoin="round"/>
<path d="M79.2186 22.3286H88.1977C89.0016 21.6332 96.2999 23.1627 99.8485 24.0143L108.291 27.1688C110.846 28.1235 113.014 29.8965 114.456 32.2116L117.403 36.9421L124.479 47.1482C128.398 53.2492 129.015 63.117 128.834 67.2883C123.935 70.5983 120.624 68.6675 119.58 67.2883L115.245 51.4569L105.765 45.4824C103.892 57.9115 96.8518 66.5666 94.1909 69.4414C92.071 70.1021 89.995 69.9933 88.059 69.4414C84.0073 68.2865 80.5688 65.1914 78.6242 63.1508C74.2603 60.8092 73.4868 56.3799 73.4868 55.869C73.4868 55.6338 73.8513 54.0149 74.277 51.9866C74.7759 49.6098 75.3588 46.6708 75.5376 44.7374L74.5437 39.522C73.4932 40.7992 68.9501 41.4733 66.8098 41.6507L57.9757 42.3958C49.0351 43.2473 41.549 39.7703 38.9236 37.9255C36.5394 32.0502 39.917 30.7942 41.9038 30.9007C46.6721 31.6644 54.6052 32.4252 57.9757 32.7101L64.0517 29.946C64.7959 28.4577 67.7072 26.3675 70.4871 24.6492C73.0991 23.0347 76.1478 22.3286 79.2186 22.3286Z" fill="white"/>
<path d="M74.5437 39.522C73.4932 40.7992 68.9501 41.4733 66.8098 41.6507L57.9757 42.3958C49.0351 43.2473 41.549 39.7703 38.9236 37.9255C36.5394 32.0502 39.917 30.7942 41.9038 30.9007C46.6722 31.6644 54.6052 32.4252 57.9757 32.7101L64.0517 29.946C64.7959 28.4577 67.7072 26.3675 70.4871 24.6492C73.0991 23.0347 76.1478 22.3286 79.2186 22.3286H88.1977C89.0016 21.6332 96.2999 23.1627 99.8485 24.0143L108.291 27.1688M74.5437 39.522L75.5376 44.7374C75.3588 46.6708 74.7759 49.6098 74.277 51.9866M74.5437 39.522C74.2125 37.7178 73.7487 33.4677 74.5437 30.9007M78.6242 63.1508C74.2603 60.8092 73.4868 56.3799 73.4868 55.869C73.4868 55.6338 73.8513 54.0149 74.277 51.9866M78.6242 63.1508L83.5187 47.1482L88.1977 28.3412M78.6242 63.1508C80.5688 65.1914 84.0073 68.2865 88.059 69.4414M105.765 45.4824C103.892 57.9115 96.8518 66.5665 94.1909 69.4414C92.071 70.1021 89.995 69.9933 88.059 69.4414M105.765 45.4824L115.245 51.4569L119.58 67.2883C120.624 68.6675 123.935 70.5983 128.834 67.2883C129.015 63.117 128.398 53.2492 124.479 47.1482L117.403 36.9421L114.456 32.2116C113.014 29.8965 110.846 28.1235 108.291 27.1688M105.765 45.4824L102.607 43.6586M108.291 27.1688C106.622 27.8778 103.148 30.6059 102.607 35.8458V40.0699M88.059 69.4414L90.0619 64.886C88.0694 62.4406 87.9889 57.8558 88.1977 55.869L78.6242 48.4706C77.9176 49.5964 76.0589 51.8759 74.277 51.9866" stroke="black" stroke-linecap="round" stroke-linejoin="round"/>
<path d="M85.7178 23.471L86.2333 21.1516L91.9672 20.0564L94.3509 25.7903C92.2377 28.8828 88.9177 28.4962 87.5218 27.9164C85.254 27.0402 85.3742 24.5877 85.7178 23.471Z" fill="white" stroke="black"/>
<path d="M98.6452 25.6328C100.584 25.5703 101.176 20.3153 101.229 17.6955C102.859 10.4702 97.8922 6.26849 95.2052 5.07083C92.8076 4.91447 87.4652 6.00904 85.2761 11.6381C83.087 17.2672 86.6052 20.2903 88.6379 21.0982L89.7324 24.1472L94.6579 25.6328C96.6594 25.9456 98.15 25.7631 98.6452 25.6328Z" fill="white" stroke="black"/>
<path d="M90.7589 18.2442C90.2357 16.3695 91.4492 15.9372 92.1213 15.9554C97.0577 15.6622 100.185 14.0067 101.132 13.2157C101.492 12.5142 101.917 12.0217 102.084 11.863C102.464 11.8831 102.543 12.6062 102.534 12.9652C102.715 16.7328 101.841 17.7415 101.382 17.7749C100.16 16.4923 99.6202 16.4389 99.5033 16.5725L98.4974 18.2442C97.6255 19.6393 96.0996 20.2788 95.4456 20.4241C92.8298 20.9037 91.2312 19.1707 90.7589 18.2442Z" fill="white" stroke="black"/>
<path d="M87.6558 21.2601C89.4835 19.9023 90.5061 16.5604 90.7889 15.0591C98.3607 15.0591 101.428 12.7528 102.016 11.5996C102.225 8.04872 99.318 5.02869 97.8384 3.96254C92.6165 0.881629 86.7419 3.37515 84.4574 5.00703C80.9587 8.08794 82.1293 15.2115 83.1519 18.3881C83.9352 21.4168 86.4809 21.5647 87.6558 21.2601Z" fill="white" stroke="black"/>
<path d="M90.1904 16.8257C88.0821 16.1232 83.5143 13.9455 82.1088 10.8547" stroke="black" stroke-width="2" stroke-linecap="round" stroke-linejoin="round"/>
<path d="M90.8652 70.2612L87.4828 74.6101L65.7843 95.5084C68.8848 99.9377 75.6413 110.222 77.864 115.923" stroke="black" stroke-linecap="round" stroke-linejoin="round"/>
<mask id="path-22-outside-1_91_64" maskUnits="userSpaceOnUse" x="-0.999329" y="-0.000244141" width="135" height="174" fill="black">
<rect fill="white" x="-0.999329" y="-0.000244141" width="135" height="174"/>
<path fill-rule="evenodd" clip-rule="evenodd" d="M89.9565 2.22528C92.3708 1.78177 95.1714 1.90631 97.8354 3.38446L98.0922 3.53192L98.1127 3.54364L98.1303 3.55634C98.9148 4.12161 100.056 5.18583 100.977 6.57196C101.878 7.9279 102.594 9.63261 102.519 11.5046C102.593 11.5564 102.656 11.6179 102.706 11.6813C102.824 11.8291 102.893 12.0026 102.935 12.1481C103.02 12.4414 103.039 12.7671 103.035 12.9772C103.122 14.8729 102.951 16.1276 102.67 16.9343C102.529 17.3409 102.352 17.6539 102.151 17.8757C102.024 18.0147 101.876 18.1285 101.711 18.1989C101.658 19.5018 101.491 21.2425 101.13 22.7399C101.039 23.1197 100.932 23.4905 100.81 23.8395L108.467 26.6999C111.125 27.6932 113.381 29.5384 114.881 31.947L117.823 36.6696L124.891 46.863L124.901 46.8776C126.913 50.0108 128.062 54.0803 128.688 57.86C129.315 61.6462 129.426 65.1905 129.333 67.3093C129.327 67.4672 129.245 67.6131 129.115 67.7018C128.823 67.899 128.535 68.0768 128.252 68.2399L128.141 69.1325L128.524 70.1003C128.751 70.6755 128.896 71.2812 128.953 71.8972L129.125 73.7936L130.314 75.6579C131.015 76.4598 131.367 77.0656 131.442 77.5358C131.482 77.7911 131.447 78.0554 131.285 78.2692C131.139 78.46 130.939 78.5445 130.763 78.5739L130.764 78.5759C130.755 78.5779 130.745 78.577 130.736 78.5788C130.728 78.5799 130.719 78.5838 130.711 78.5847L130.71 78.5827C130.605 78.6011 130.5 78.6079 130.398 78.6022C130.971 79.2304 131.264 79.7755 131.347 80.2458C131.436 80.7504 131.278 81.1792 130.972 81.4157L130.973 81.4167C130.97 81.4188 130.967 81.4205 130.964 81.4225C130.961 81.4254 130.957 81.4295 130.954 81.4323L130.953 81.4304C130.818 81.5351 130.678 81.6021 130.539 81.6423C130.652 82.1245 130.524 82.5317 130.231 82.7741C130.171 82.8232 130.101 82.8581 130.026 82.8757C129.712 82.9489 129.411 82.9117 129.159 82.8395C129.121 83.021 129.052 83.182 128.935 83.3132C128.625 83.661 128.208 83.6065 127.98 83.5222C127.567 83.3881 127.069 83.0635 126.568 82.6804C126.052 82.2859 125.481 81.7894 124.914 81.2643C124.116 80.524 123.313 79.7135 122.66 79.029C122.384 80.2877 121.751 80.9473 121.231 81.1276C121.116 81.1674 120.99 81.1639 120.877 81.1179C120.615 81.0105 120.46 80.7791 120.372 80.6149C120.273 80.4324 120.198 80.2187 120.14 80.0153C120.024 79.606 119.956 79.1534 119.928 78.8591C119.927 78.8433 119.926 78.827 119.926 78.8112C119.926 78.7103 119.889 78.2952 119.835 77.7722C119.784 77.2668 119.721 76.7019 119.68 76.3366C119.678 76.3181 119.677 76.2986 119.677 76.28C119.677 75.4803 119.848 73.9315 119.93 73.2722L119.952 73.1755C119.962 73.1445 119.975 73.1141 119.992 73.0856C119.992 73.0845 119.995 73.0808 119.998 73.0739C120.003 73.0649 120.008 73.0519 120.014 73.0358C120.027 73.0029 120.042 72.9591 120.06 72.905C120.095 72.7958 120.135 72.6544 120.178 72.487C120.264 72.1524 120.357 71.7298 120.451 71.2751C120.613 70.4842 120.769 69.6099 120.88 68.9616C120.113 68.5707 119.539 68.0613 119.182 67.5895C119.144 67.5388 119.115 67.4809 119.098 67.4196L114.814 51.7751L106.139 46.3073C104.081 58.4753 97.1962 66.9306 94.558 69.7809C94.4988 69.8449 94.4235 69.8926 94.3403 69.9186C94.0282 70.0159 93.7165 70.0945 93.4067 70.1608C93.2159 73.3468 91.2573 79.7893 84.6137 82.0612C82.0351 84.3635 78.183 87.7998 74.9086 90.7116C73.2558 92.1814 71.7499 93.5184 70.6293 94.5085C69.9234 95.1322 69.3575 95.6281 69.0073 95.9313C71.5065 99.4132 76.6691 107.379 79.3461 114.322L79.4213 114.518L79.3334 114.71C79.3032 114.776 79.2683 114.842 79.2319 114.912L83.8393 121.994L83.9135 122.107L83.9203 122.241C83.9245 122.323 83.925 122.405 83.9262 122.485C95.9652 135.81 107.811 148.578 116.864 158.175C117.893 159.267 118.306 160.813 117.928 162.165C118.298 163.581 117.934 165.129 116.641 166.114C109.429 171.611 98.4729 172.216 90.308 171.449C85.5133 170.998 81.4508 168.121 78.6 164.34C62.2966 142.712 23.4987 95.6753 3.02386 71.1354C2.13872 70.0745 1.77781 68.6464 2.14007 67.3571C1.83727 66.2061 2.02028 64.9562 2.83343 63.9606C7.8427 57.8281 15.6856 56.238 22.1596 56.363C27.6334 56.4688 32.0009 60.2459 35.058 64.572C35.7875 65.6043 36.5784 66.6929 37.4262 67.8327C37.7341 65.7126 39.1006 63.88 41.1518 62.8786C45.9691 60.5267 52.2519 58.8927 58.2319 57.8034C63.879 56.7747 69.2879 56.2289 72.9965 56.0231C72.9906 55.9619 72.9868 55.9102 72.9868 55.8688C72.9868 55.7521 73.0219 55.5518 73.059 55.3552C73.1009 55.1333 73.1606 54.8408 73.2328 54.4968C73.3052 54.152 73.3919 53.7512 73.4858 53.3112C73.5798 52.8707 73.6823 52.3895 73.7885 51.8835C74.2826 49.5297 74.8497 46.6601 75.0327 44.7595L74.2075 40.4274C73.9545 40.5784 73.6732 40.7136 73.3813 40.8317C72.7402 41.0911 71.9776 41.3077 71.1967 41.486C69.6338 41.8428 67.9381 42.058 66.851 42.1481L66.852 42.1491L58.0229 42.8923C48.9423 43.757 41.3397 40.2343 38.6362 38.3347C38.5575 38.2794 38.4965 38.202 38.4604 38.113C38.3087 37.7392 38.1792 37.3809 38.0698 37.0378L36.4145 36.1608C35.9628 36.24 35.3105 36.3041 34.5981 36.2682C33.7957 36.2278 32.8778 36.0624 32.0795 35.6354C31.778 35.5038 31.0147 35.1858 30.3618 34.9577C30.0289 34.8892 29.5548 34.752 29.1508 34.5329C28.9384 34.4177 28.7169 34.2648 28.5483 34.0651C28.3759 33.8607 28.2436 33.5854 28.269 33.2556C28.2915 32.7972 28.6974 32.5183 29.1381 32.4118C29.3391 32.3633 29.5807 32.3396 29.8686 32.3434L29.3666 32.1022L27.0483 31.7302C26.69 31.6789 26.1503 31.5429 25.7192 31.277C25.502 31.143 25.2776 30.9545 25.1342 30.694C24.9815 30.4163 24.9413 30.0912 25.0473 29.7497L25.0737 29.6804C25.0843 29.6583 25.097 29.6372 25.1108 29.6169C25.2088 29.473 25.356 29.3853 25.4741 29.3317C25.5631 29.2913 25.6661 29.26 25.7807 29.2321C25.5593 29.1285 25.3379 29.0101 25.143 28.8796C24.9165 28.7278 24.6732 28.5262 24.5278 28.2712C24.4513 28.1369 24.3929 27.972 24.394 27.7858C24.395 27.6226 24.4437 27.471 24.5239 27.3347C24.596 27.1756 24.7251 27.0723 24.8442 27.0124C24.918 26.9753 24.9974 26.9492 25.0795 26.9323C25.073 26.9041 25.068 26.8748 25.0639 26.8454C25.0266 26.5798 25.1009 26.3158 25.2885 26.0934C25.295 26.0857 25.302 26.0783 25.309 26.071C25.4929 25.8784 25.7955 25.7753 26.1254 25.7468C26.1331 25.7461 26.1411 25.7454 26.1489 25.7448C26.1426 25.7059 26.139 25.6651 26.1381 25.6237C26.1322 25.3478 26.2582 25.1074 26.4682 24.9323L26.561 24.8718C26.5937 24.855 26.6287 24.8419 26.6645 24.8327C27.2707 24.6768 29.0383 24.5375 32.0717 24.8249C33.4025 24.951 34.6637 25.4804 35.684 26.3454C36.932 27.4037 38.5074 28.8422 39.5678 30.1169L40.4311 30.5534C40.8795 30.4354 41.3256 30.3906 41.7231 30.3942L41.9311 30.4011L41.9828 30.4069C46.671 31.1578 54.4485 31.9068 57.8881 32.1999L63.6918 29.5602C64.1574 28.7491 65.1019 27.8562 66.1967 26.9909C67.3858 26.0512 68.826 25.0875 70.2241 24.2233C72.9293 22.5513 76.074 21.8278 79.2192 21.8278H85.5698L85.5932 21.7175C85.4157 21.6693 85.237 21.6097 85.06 21.5339C84.0307 21.093 83.0963 20.1713 82.6674 18.5134C82.1711 16.9619 81.6452 14.5176 81.6108 12.0329C81.4575 11.7855 81.3182 11.531 81.1987 11.2683C80.9703 10.7656 81.1922 10.1727 81.6948 9.94403C81.7006 9.94137 81.7065 9.93875 81.7123 9.93622C81.9498 7.90173 82.6342 5.94638 84.1274 4.63153L84.1459 4.61493L84.1664 4.60028C85.363 3.74559 87.4711 2.68193 89.9565 2.22528ZM51.6684 72.6266C52.2537 75.4279 52.9849 80.8784 52.5971 86.7526C53.7594 88.1354 54.9481 89.5428 56.1625 90.9684C58.6444 86.2925 62.3769 80.0232 66.4184 75.2536C64.5117 75.06 61.8721 74.7418 59.2114 74.3083C56.4879 73.8646 53.7085 73.2982 51.6684 72.6266Z"/>
</mask>
<path fill-rule="evenodd" clip-rule="evenodd" d="M89.9565 2.22528C92.3708 1.78177 95.1714 1.90631 97.8354 3.38446L98.0922 3.53192L98.1127 3.54364L98.1303 3.55634C98.9148 4.12161 100.056 5.18583 100.977 6.57196C101.878 7.9279 102.594 9.63261 102.519 11.5046C102.593 11.5564 102.656 11.6179 102.706 11.6813C102.824 11.8291 102.893 12.0026 102.935 12.1481C103.02 12.4414 103.039 12.7671 103.035 12.9772C103.122 14.8729 102.951 16.1276 102.67 16.9343C102.529 17.3409 102.352 17.6539 102.151 17.8757C102.024 18.0147 101.876 18.1285 101.711 18.1989C101.658 19.5018 101.491 21.2425 101.13 22.7399C101.039 23.1197 100.932 23.4905 100.81 23.8395L108.467 26.6999C111.125 27.6932 113.381 29.5384 114.881 31.947L117.823 36.6696L124.891 46.863L124.901 46.8776C126.913 50.0108 128.062 54.0803 128.688 57.86C129.315 61.6462 129.426 65.1905 129.333 67.3093C129.327 67.4672 129.245 67.6131 129.115 67.7018C128.823 67.899 128.535 68.0768 128.252 68.2399L128.141 69.1325L128.524 70.1003C128.751 70.6755 128.896 71.2812 128.953 71.8972L129.125 73.7936L130.314 75.6579C131.015 76.4598 131.367 77.0656 131.442 77.5358C131.482 77.7911 131.447 78.0554 131.285 78.2692C131.139 78.46 130.939 78.5445 130.763 78.5739L130.764 78.5759C130.755 78.5779 130.745 78.577 130.736 78.5788C130.728 78.5799 130.719 78.5838 130.711 78.5847L130.71 78.5827C130.605 78.6011 130.5 78.6079 130.398 78.6022C130.971 79.2304 131.264 79.7755 131.347 80.2458C131.436 80.7504 131.278 81.1792 130.972 81.4157L130.973 81.4167C130.97 81.4188 130.967 81.4205 130.964 81.4225C130.961 81.4254 130.957 81.4295 130.954 81.4323L130.953 81.4304C130.818 81.5351 130.678 81.6021 130.539 81.6423C130.652 82.1245 130.524 82.5317 130.231 82.7741C130.171 82.8232 130.101 82.8581 130.026 82.8757C129.712 82.9489 129.411 82.9117 129.159 82.8395C129.121 83.021 129.052 83.182 128.935 83.3132C128.625 83.661 128.208 83.6065 127.98 83.5222C127.567 83.3881 127.069 83.0635 126.568 82.6804C126.052 82.2859 125.481 81.7894 124.914 81.2643C124.116 80.524 123.313 79.7135 122.66 79.029C122.384 80.2877 121.751 80.9473 121.231 81.1276C121.116 81.1674 120.99 81.1639 120.877 81.1179C120.615 81.0105 120.46 80.7791 120.372 80.6149C120.273 80.4324 120.198 80.2187 120.14 80.0153C120.024 79.606 119.956 79.1534 119.928 78.8591C119.927 78.8433 119.926 78.827 119.926 78.8112C119.926 78.7103 119.889 78.2952 119.835 77.7722C119.784 77.2668 119.721 76.7019 119.68 76.3366C119.678 76.3181 119.677 76.2986 119.677 76.28C119.677 75.4803 119.848 73.9315 119.93 73.2722L119.952 73.1755C119.962 73.1445 119.975 73.1141 119.992 73.0856C119.992 73.0845 119.995 73.0808 119.998 73.0739C120.003 73.0649 120.008 73.0519 120.014 73.0358C120.027 73.0029 120.042 72.9591 120.06 72.905C120.095 72.7958 120.135 72.6544 120.178 72.487C120.264 72.1524 120.357 71.7298 120.451 71.2751C120.613 70.4842 120.769 69.6099 120.88 68.9616C120.113 68.5707 119.539 68.0613 119.182 67.5895C119.144 67.5388 119.115 67.4809 119.098 67.4196L114.814 51.7751L106.139 46.3073C104.081 58.4753 97.1962 66.9306 94.558 69.7809C94.4988 69.8449 94.4235 69.8926 94.3403 69.9186C94.0282 70.0159 93.7165 70.0945 93.4067 70.1608C93.2159 73.3468 91.2573 79.7893 84.6137 82.0612C82.0351 84.3635 78.183 87.7998 74.9086 90.7116C73.2558 92.1814 71.7499 93.5184 70.6293 94.5085C69.9234 95.1322 69.3575 95.6281 69.0073 95.9313C71.5065 99.4132 76.6691 107.379 79.3461 114.322L79.4213 114.518L79.3334 114.71C79.3032 114.776 79.2683 114.842 79.2319 114.912L83.8393 121.994L83.9135 122.107L83.9203 122.241C83.9245 122.323 83.925 122.405 83.9262 122.485C95.9652 135.81 107.811 148.578 116.864 158.175C117.893 159.267 118.306 160.813 117.928 162.165C118.298 163.581 117.934 165.129 116.641 166.114C109.429 171.611 98.4729 172.216 90.308 171.449C85.5133 170.998 81.4508 168.121 78.6 164.34C62.2966 142.712 23.4987 95.6753 3.02386 71.1354C2.13872 70.0745 1.77781 68.6464 2.14007 67.3571C1.83727 66.2061 2.02028 64.9562 2.83343 63.9606C7.8427 57.8281 15.6856 56.238 22.1596 56.363C27.6334 56.4688 32.0009 60.2459 35.058 64.572C35.7875 65.6043 36.5784 66.6929 37.4262 67.8327C37.7341 65.7126 39.1006 63.88 41.1518 62.8786C45.9691 60.5267 52.2519 58.8927 58.2319 57.8034C63.879 56.7747 69.2879 56.2289 72.9965 56.0231C72.9906 55.9619 72.9868 55.9102 72.9868 55.8688C72.9868 55.7521 73.0219 55.5518 73.059 55.3552C73.1009 55.1333 73.1606 54.8408 73.2328 54.4968C73.3052 54.152 73.3919 53.7512 73.4858 53.3112C73.5798 52.8707 73.6823 52.3895 73.7885 51.8835C74.2826 49.5297 74.8497 46.6601 75.0327 44.7595L74.2075 40.4274C73.9545 40.5784 73.6732 40.7136 73.3813 40.8317C72.7402 41.0911 71.9776 41.3077 71.1967 41.486C69.6338 41.8428 67.9381 42.058 66.851 42.1481L66.852 42.1491L58.0229 42.8923C48.9423 43.757 41.3397 40.2343 38.6362 38.3347C38.5575 38.2794 38.4965 38.202 38.4604 38.113C38.3087 37.7392 38.1792 37.3809 38.0698 37.0378L36.4145 36.1608C35.9628 36.24 35.3105 36.3041 34.5981 36.2682C33.7957 36.2278 32.8778 36.0624 32.0795 35.6354C31.778 35.5038 31.0147 35.1858 30.3618 34.9577C30.0289 34.8892 29.5548 34.752 29.1508 34.5329C28.9384 34.4177 28.7169 34.2648 28.5483 34.0651C28.3759 33.8607 28.2436 33.5854 28.269 33.2556C28.2915 32.7972 28.6974 32.5183 29.1381 32.4118C29.3391 32.3633 29.5807 32.3396 29.8686 32.3434L29.3666 32.1022L27.0483 31.7302C26.69 31.6789 26.1503 31.5429 25.7192 31.277C25.502 31.143 25.2776 30.9545 25.1342 30.694C24.9815 30.4163 24.9413 30.0912 25.0473 29.7497L25.0737 29.6804C25.0843 29.6583 25.097 29.6372 25.1108 29.6169C25.2088 29.473 25.356 29.3853 25.4741 29.3317C25.5631 29.2913 25.6661 29.26 25.7807 29.2321C25.5593 29.1285 25.3379 29.0101 25.143 28.8796C24.9165 28.7278 24.6732 28.5262 24.5278 28.2712C24.4513 28.1369 24.3929 27.972 24.394 27.7858C24.395 27.6226 24.4437 27.471 24.5239 27.3347C24.596 27.1756 24.7251 27.0723 24.8442 27.0124C24.918 26.9753 24.9974 26.9492 25.0795 26.9323C25.073 26.9041 25.068 26.8748 25.0639 26.8454C25.0266 26.5798 25.1009 26.3158 25.2885 26.0934C25.295 26.0857 25.302 26.0783 25.309 26.071C25.4929 25.8784 25.7955 25.7753 26.1254 25.7468C26.1331 25.7461 26.1411 25.7454 26.1489 25.7448C26.1426 25.7059 26.139 25.6651 26.1381 25.6237C26.1322 25.3478 26.2582 25.1074 26.4682 24.9323L26.561 24.8718C26.5937 24.855 26.6287 24.8419 26.6645 24.8327C27.2707 24.6768 29.0383 24.5375 32.0717 24.8249C33.4025 24.951 34.6637 25.4804 35.684 26.3454C36.932 27.4037 38.5074 28.8422 39.5678 30.1169L40.4311 30.5534C40.8795 30.4354 41.3256 30.3906 41.7231 30.3942L41.9311 30.4011L41.9828 30.4069C46.671 31.1578 54.4485 31.9068 57.8881 32.1999L63.6918 29.5602C64.1574 28.7491 65.1019 27.8562 66.1967 26.9909C67.3858 26.0512 68.826 25.0875 70.2241 24.2233C72.9293 22.5513 76.074 21.8278 79.2192 21.8278H85.5698L85.5932 21.7175C85.4157 21.6693 85.237 21.6097 85.06 21.5339C84.0307 21.093 83.0963 20.1713 82.6674 18.5134C82.1711 16.9619 81.6452 14.5176 81.6108 12.0329C81.4575 11.7855 81.3182 11.531 81.1987 11.2683C80.9703 10.7656 81.1922 10.1727 81.6948 9.94403C81.7006 9.94137 81.7065 9.93875 81.7123 9.93622C81.9498 7.90173 82.6342 5.94638 84.1274 4.63153L84.1459 4.61493L84.1664 4.60028C85.363 3.74559 87.4711 2.68193 89.9565 2.22528ZM51.6684 72.6266C52.2537 75.4279 52.9849 80.8784 52.5971 86.7526C53.7594 88.1354 54.9481 89.5428 56.1625 90.9684C58.6444 86.2925 62.3769 80.0232 66.4184 75.2536C64.5117 75.06 61.8721 74.7418 59.2114 74.3083C56.4879 73.8646 53.7085 73.2982 51.6684 72.6266Z" stroke="black" stroke-width="4" stroke-linecap="round" stroke-linejoin="round" mask="url(#path-22-outside-1_91_64)"/>
</svg>
